<mxfile host="65bd71144e" modified="2020-12-06T03:33:29.992Z" agent="5.0 (Windows NT 10.0; Win64; x64) AppleWebKit/537.36 (KHTML, like Gecko) Code/1.51.1 Chrome/83.0.4103.122 Electron/9.3.3 Safari/537.36" etag="6sr8hw8om49hQTC_VA8T" version="13.10.0" type="embed">
    <diagram id="wUCKSXRr4WTQwj31k6qt" name="Page-1">
        <mxGraphModel dx="1410" dy="1195" grid="1" gridSize="10" guides="1" tooltips="1" connect="1" arrows="1" fold="1" page="1" pageScale="1" pageWidth="1169" pageHeight="827" math="0" shadow="0">
            <root>
                <mxCell id="0"/>
                <mxCell id="1" parent="0"/>
                <mxCell id="3" value="Text" style="html=1;strokeColor=none;fillColor=#0079D6;labelPosition=center;verticalLabelPosition=middle;verticalAlign=top;align=center;fontSize=12;outlineConnect=0;spacingTop=-6;fontColor=#FFFFFF;shape=mxgraph.sitemap.text;" vertex="1" parent="1">
                    <mxGeometry x="420" y="400" width="120" height="70" as="geometry"/>
                </mxCell>
                <mxCell id="4" value="News" style="html=1;strokeColor=none;fillColor=#0079D6;labelPosition=center;verticalLabelPosition=middle;verticalAlign=top;align=center;fontSize=12;outlineConnect=0;spacingTop=-6;fontColor=#FFFFFF;shape=mxgraph.sitemap.news;" vertex="1" parent="1">
                    <mxGeometry x="610" y="290" width="120" height="70" as="geometry"/>
                </mxCell>
                <mxCell id="5" value="Photo" style="html=1;strokeColor=none;fillColor=#0079D6;labelPosition=center;verticalLabelPosition=middle;verticalAlign=top;align=center;fontSize=12;outlineConnect=0;spacingTop=-6;fontColor=#FFFFFF;shape=mxgraph.sitemap.photo;" vertex="1" parent="1">
                    <mxGeometry x="730" y="510" width="120" height="70" as="geometry"/>
                </mxCell>
                <mxCell id="6" value="Home" style="html=1;strokeColor=none;fillColor=#0079D6;labelPosition=center;verticalLabelPosition=middle;verticalAlign=top;align=center;fontSize=12;outlineConnect=0;spacingTop=-6;fontColor=#FFFFFF;shape=mxgraph.sitemap.home;" vertex="1" parent="1">
                    <mxGeometry x="290" y="270" width="120" height="70" as="geometry"/>
                </mxCell>
                <mxCell id="7" value="Info" style="html=1;strokeColor=none;fillColor=#0079D6;labelPosition=center;verticalLabelPosition=middle;verticalAlign=top;align=center;fontSize=12;outlineConnect=0;spacingTop=-6;fontColor=#FFFFFF;shape=mxgraph.sitemap.info;" vertex="1" parent="1">
                    <mxGeometry x="260" y="580" width="120" height="70" as="geometry"/>
                </mxCell>
            </root>
        </mxGraphModel>
    </diagram>
</mxfile>
